<svg width="296" height="24" viewBox="0 0 296 24" fill="none" xmlns="http://www.w3.org/2000/svg">
<path d="M0 12C0 5.37258 5.37258 0 12 0C18.6274 0 24 5.37258 24 12C24 18.6274 18.6274 24 12 24C5.37258 24 0 18.6274 0 12Z" fill="#F9F5FF"/>
<path fill-rule="evenodd" clip-rule="evenodd" d="M17.0964 7.39016L9.93638 14.3002L8.03638 12.2702C7.68638 11.9402 7.13638 11.9202 6.73638 12.2002C6.34638 12.4902 6.23638 13.0002 6.47638 13.4102L8.72638 17.0702C8.94638 17.4102 9.32638 17.6202 9.75638 17.6202C10.1664 17.6202 10.5564 17.4102 10.7764 17.0702C11.1364 16.6002 18.0064 8.41016 18.0064 8.41016C18.9064 7.49016 17.8164 6.68016 17.0964 7.38016V7.39016Z" fill="#7F56D9"/>
<path d="M37.8864 18H36.4091L40.6818 6.36364H42.1364L46.4091 18H44.9318L41.4545 8.20455H41.3636L37.8864 18ZM38.4318 13.4545H44.3864V14.7045H38.4318V13.4545ZM51.5852 18.1818C50.767 18.1818 50.0625 17.9886 49.4716 17.6023C48.8807 17.2159 48.4261 16.6837 48.108 16.0057C47.7898 15.3277 47.6307 14.553 47.6307 13.6818C47.6307 12.7955 47.7936 12.0133 48.1193 11.3352C48.4489 10.6534 48.9072 10.1212 49.4943 9.73864C50.0852 9.35227 50.7746 9.15909 51.5625 9.15909C52.1761 9.15909 52.7292 9.27273 53.2216 9.5C53.714 9.72727 54.1174 10.0455 54.4318 10.4545C54.7462 10.8636 54.9413 11.3409 55.017 11.8864H53.6761C53.5739 11.4886 53.3466 11.1364 52.9943 10.8295C52.6458 10.5189 52.1761 10.3636 51.5852 10.3636C51.0625 10.3636 50.6042 10.5 50.2102 10.7727C49.8201 11.0417 49.5152 11.4223 49.2955 11.9148C49.0795 12.4034 48.9716 12.9773 48.9716 13.6364C48.9716 14.3106 49.0777 14.8977 49.2898 15.3977C49.5057 15.8977 49.8087 16.286 50.1989 16.5625C50.5928 16.839 51.0549 16.9773 51.5852 16.9773C51.9337 16.9773 52.25 16.9167 52.5341 16.7955C52.8182 16.6742 53.0587 16.5 53.2557 16.2727C53.4527 16.0455 53.5928 15.7727 53.6761 15.4545H55.017C54.9413 15.9697 54.7538 16.4337 54.4545 16.8466C54.1591 17.2557 53.767 17.5814 53.2784 17.8239C52.7936 18.0625 52.2292 18.1818 51.5852 18.1818ZM60.5227 18.1818C59.7045 18.1818 59 17.9886 58.4091 17.6023C57.8182 17.2159 57.3636 16.6837 57.0455 16.0057C56.7273 15.3277 56.5682 14.553 56.5682 13.6818C56.5682 12.7955 56.7311 12.0133 57.0568 11.3352C57.3864 10.6534 57.8447 10.1212 58.4318 9.73864C59.0227 9.35227 59.7121 9.15909 60.5 9.15909C61.1136 9.15909 61.6667 9.27273 62.1591 9.5C62.6515 9.72727 63.0549 10.0455 63.3693 10.4545C63.6837 10.8636 63.8788 11.3409 63.9545 11.8864H62.6136C62.5114 11.4886 62.2841 11.1364 61.9318 10.8295C61.5833 10.5189 61.1136 10.3636 60.5227 10.3636C60 10.3636 59.5417 10.5 59.1477 10.7727C58.7576 11.0417 58.4527 11.4223 58.233 11.9148C58.017 12.4034 57.9091 12.9773 57.9091 13.6364C57.9091 14.3106 58.0152 14.8977 58.2273 15.3977C58.4432 15.8977 58.7462 16.286 59.1364 16.5625C59.5303 16.839 59.9924 16.9773 60.5227 16.9773C60.8712 16.9773 61.1875 16.9167 61.4716 16.7955C61.7557 16.6742 61.9962 16.5 62.1932 16.2727C62.3902 16.0455 62.5303 15.7727 62.6136 15.4545H63.9545C63.8788 15.9697 63.6913 16.4337 63.392 16.8466C63.0966 17.2557 62.7045 17.5814 62.2159 17.8239C61.7311 18.0625 61.1667 18.1818 60.5227 18.1818ZM69.5739 18.1818C68.733 18.1818 68.0076 17.9962 67.3977 17.625C66.7917 17.25 66.3239 16.7273 65.9943 16.0568C65.6686 15.3826 65.5057 14.5985 65.5057 13.7045C65.5057 12.8106 65.6686 12.0227 65.9943 11.3409C66.3239 10.6553 66.7822 10.1212 67.3693 9.73864C67.9602 9.35227 68.6496 9.15909 69.4375 9.15909C69.892 9.15909 70.3409 9.23485 70.7841 9.38636C71.2273 9.53788 71.6307 9.78409 71.9943 10.125C72.358 10.4621 72.6477 10.9091 72.8636 11.4659C73.0795 12.0227 73.1875 12.7083 73.1875 13.5227V14.0909H66.4602V12.9318H71.8239C71.8239 12.4394 71.7254 12 71.5284 11.6136C71.3352 11.2273 71.0587 10.9223 70.6989 10.6989C70.3428 10.4754 69.9223 10.3636 69.4375 10.3636C68.9034 10.3636 68.4413 10.4962 68.0511 10.7614C67.6648 11.0227 67.3674 11.3636 67.1591 11.7841C66.9508 12.2045 66.8466 12.6553 66.8466 13.1364V13.9091C66.8466 14.5682 66.9602 15.1269 67.1875 15.5852C67.4186 16.0398 67.7386 16.3864 68.1477 16.625C68.5568 16.8598 69.0322 16.9773 69.5739 16.9773C69.9261 16.9773 70.2443 16.928 70.5284 16.8295C70.8163 16.7273 71.0644 16.5758 71.2727 16.375C71.4811 16.1705 71.642 15.9167 71.7557 15.6136L73.0511 15.9773C72.9148 16.4167 72.6856 16.803 72.3636 17.1364C72.0417 17.4659 71.6439 17.7235 71.1705 17.9091C70.697 18.0909 70.1648 18.1818 69.5739 18.1818ZM81.4091 11.2273L80.2045 11.5682C80.1288 11.3674 80.017 11.1723 79.8693 10.983C79.7254 10.7898 79.5284 10.6307 79.2784 10.5057C79.0284 10.3807 78.7083 10.3182 78.3182 10.3182C77.7841 10.3182 77.339 10.4413 76.983 10.6875C76.6307 10.9299 76.4545 11.2386 76.4545 11.6136C76.4545 11.947 76.5758 12.2102 76.8182 12.4034C77.0606 12.5966 77.4394 12.7576 77.9545 12.8864L79.25 13.2045C80.0303 13.3939 80.6117 13.6837 80.9943 14.0739C81.3769 14.4602 81.5682 14.9583 81.5682 15.5682C81.5682 16.0682 81.4242 16.5152 81.1364 16.9091C80.8523 17.303 80.4545 17.6136 79.9432 17.8409C79.4318 18.0682 78.8371 18.1818 78.1591 18.1818C77.2689 18.1818 76.5322 17.9886 75.9489 17.6023C75.3655 17.2159 74.9962 16.6515 74.8409 15.9091L76.1136 15.5909C76.2348 16.0606 76.464 16.4129 76.8011 16.6477C77.142 16.8826 77.5871 17 78.1364 17C78.7614 17 79.2576 16.8674 79.625 16.6023C79.9962 16.3333 80.1818 16.0114 80.1818 15.6364C80.1818 15.3333 80.0758 15.0795 79.8636 14.875C79.6515 14.6667 79.3258 14.5114 78.8864 14.4091L77.4318 14.0682C76.6326 13.8788 76.0455 13.5852 75.6705 13.1875C75.2992 12.786 75.1136 12.2841 75.1136 11.6818C75.1136 11.1894 75.2519 10.7538 75.5284 10.375C75.8087 9.99621 76.1894 9.69886 76.6705 9.48295C77.1553 9.26705 77.7045 9.15909 78.3182 9.15909C79.1818 9.15909 79.8598 9.34848 80.3523 9.72727C80.8485 10.1061 81.2008 10.6061 81.4091 11.2273ZM89.7685 11.2273L88.5639 11.5682C88.4882 11.3674 88.3764 11.1723 88.2287 10.983C88.0848 10.7898 87.8878 10.6307 87.6378 10.5057C87.3878 10.3807 87.0677 10.3182 86.6776 10.3182C86.1435 10.3182 85.6984 10.4413 85.3423 10.6875C84.9901 10.9299 84.8139 11.2386 84.8139 11.6136C84.8139 11.947 84.9351 12.2102 85.1776 12.4034C85.42 12.5966 85.7988 12.7576 86.3139 12.8864L87.6094 13.2045C88.3897 13.3939 88.9711 13.6837 89.3537 14.0739C89.7363 14.4602 89.9276 14.9583 89.9276 15.5682C89.9276 16.0682 89.7836 16.5152 89.4957 16.9091C89.2116 17.303 88.8139 17.6136 88.3026 17.8409C87.7912 18.0682 87.1965 18.1818 86.5185 18.1818C85.6283 18.1818 84.8916 17.9886 84.3082 17.6023C83.7249 17.2159 83.3556 16.6515 83.2003 15.9091L84.473 15.5909C84.5942 16.0606 84.8234 16.4129 85.1605 16.6477C85.5014 16.8826 85.9465 17 86.4957 17C87.1207 17 87.617 16.8674 87.9844 16.6023C88.3556 16.3333 88.5412 16.0114 88.5412 15.6364C88.5412 15.3333 88.4351 15.0795 88.223 14.875C88.0109 14.6667 87.6851 14.5114 87.2457 14.4091L85.7912 14.0682C84.992 13.8788 84.4048 13.5852 84.0298 13.1875C83.6586 12.786 83.473 12.2841 83.473 11.6818C83.473 11.1894 83.6113 10.7538 83.8878 10.375C84.1681 9.99621 84.5488 9.69886 85.0298 9.48295C85.5147 9.26705 86.0639 9.15909 86.6776 9.15909C87.5412 9.15909 88.2192 9.34848 88.7116 9.72727C89.2079 10.1061 89.5601 10.6061 89.7685 11.2273ZM100.241 9.27273V10.4091H95.7188V9.27273H100.241ZM97.0369 7.18182H98.3778V15.5C98.3778 15.8788 98.4328 16.1629 98.5426 16.3523C98.6563 16.5379 98.8002 16.6629 98.9744 16.7273C99.1525 16.7879 99.34 16.8182 99.5369 16.8182C99.6847 16.8182 99.8059 16.8106 99.9006 16.7955C99.9953 16.7765 100.071 16.7614 100.128 16.75L100.401 17.9545C100.31 17.9886 100.183 18.0227 100.02 18.0568C99.857 18.0947 99.6506 18.1136 99.4006 18.1136C99.0218 18.1136 98.6506 18.0322 98.2869 17.8693C97.9271 17.7064 97.6278 17.4583 97.3892 17.125C97.1544 16.7917 97.0369 16.3712 97.0369 15.8636V7.18182ZM105.71 18.1818C104.922 18.1818 104.231 17.9943 103.636 17.6193C103.045 17.2443 102.583 16.7197 102.25 16.0455C101.92 15.3712 101.756 14.5833 101.756 13.6818C101.756 12.7727 101.92 11.9792 102.25 11.3011C102.583 10.6231 103.045 10.0966 103.636 9.72159C104.231 9.34659 104.922 9.15909 105.71 9.15909C106.498 9.15909 107.188 9.34659 107.778 9.72159C108.373 10.0966 108.835 10.6231 109.165 11.3011C109.498 11.9792 109.665 12.7727 109.665 13.6818C109.665 14.5833 109.498 15.3712 109.165 16.0455C108.835 16.7197 108.373 17.2443 107.778 17.6193C107.188 17.9943 106.498 18.1818 105.71 18.1818ZM105.71 16.9773C106.309 16.9773 106.801 16.8239 107.188 16.517C107.574 16.2102 107.86 15.8068 108.045 15.3068C108.231 14.8068 108.324 14.2652 108.324 13.6818C108.324 13.0985 108.231 12.5549 108.045 12.0511C107.86 11.5473 107.574 11.1402 107.188 10.8295C106.801 10.5189 106.309 10.3636 105.71 10.3636C105.112 10.3636 104.619 10.5189 104.233 10.8295C103.847 11.1402 103.561 11.5473 103.375 12.0511C103.189 12.5549 103.097 13.0985 103.097 13.6818C103.097 14.2652 103.189 14.8068 103.375 15.3068C103.561 15.8068 103.847 16.2102 104.233 16.517C104.619 16.8239 105.112 16.9773 105.71 16.9773ZM118.78 18.2045C118.227 18.2045 117.725 18.1004 117.274 17.892C116.823 17.6799 116.465 17.375 116.2 16.9773C115.935 16.5758 115.803 16.0909 115.803 15.5227C115.803 15.0227 115.901 14.6174 116.098 14.3068C116.295 13.9924 116.558 13.7462 116.888 13.5682C117.217 13.3902 117.581 13.2576 117.979 13.1705C118.38 13.0795 118.784 13.0076 119.189 12.9545C119.719 12.8864 120.149 12.8352 120.479 12.8011C120.812 12.7633 121.054 12.7008 121.206 12.6136C121.361 12.5265 121.439 12.375 121.439 12.1591V12.1136C121.439 11.553 121.286 11.1174 120.979 10.8068C120.676 10.4962 120.215 10.3409 119.598 10.3409C118.958 10.3409 118.456 10.4811 118.092 10.7614C117.729 11.0417 117.473 11.3409 117.325 11.6591L116.053 11.2045C116.28 10.6742 116.583 10.2614 116.962 9.96591C117.344 9.66667 117.761 9.45833 118.212 9.34091C118.666 9.2197 119.113 9.15909 119.553 9.15909C119.833 9.15909 120.155 9.19318 120.518 9.26136C120.886 9.32576 121.24 9.46023 121.581 9.66477C121.926 9.86932 122.212 10.178 122.439 10.5909C122.666 11.0038 122.78 11.5568 122.78 12.25V18H121.439V16.8182H121.371C121.28 17.0076 121.128 17.2102 120.916 17.4261C120.704 17.642 120.422 17.8258 120.07 17.9773C119.717 18.1288 119.287 18.2045 118.78 18.2045ZM118.984 17C119.515 17 119.962 16.8958 120.325 16.6875C120.693 16.4792 120.969 16.2102 121.155 15.8807C121.344 15.5511 121.439 15.2045 121.439 14.8409V13.6136C121.382 13.6818 121.257 13.7443 121.064 13.8011C120.875 13.8542 120.655 13.9015 120.405 13.9432C120.159 13.9811 119.918 14.0152 119.683 14.0455C119.452 14.072 119.265 14.0947 119.121 14.1136C118.772 14.1591 118.446 14.233 118.143 14.3352C117.844 14.4337 117.602 14.5833 117.416 14.7841C117.234 14.9811 117.143 15.25 117.143 15.5909C117.143 16.0568 117.316 16.4091 117.661 16.6477C118.009 16.8826 118.45 17 118.984 17ZM126.568 6.36364V18H125.227V6.36364H126.568ZM130.365 6.36364V18H129.024V6.36364H130.365ZM137.503 18V6.36364H138.844V10.6591H138.957C139.056 10.5076 139.192 10.3144 139.366 10.0795C139.545 9.84091 139.798 9.62879 140.128 9.44318C140.461 9.25379 140.912 9.15909 141.48 9.15909C142.215 9.15909 142.863 9.3428 143.423 9.71023C143.984 10.0777 144.421 10.5985 144.736 11.2727C145.05 11.947 145.207 12.7424 145.207 13.6591C145.207 14.5833 145.05 15.3845 144.736 16.0625C144.421 16.7367 143.986 17.2595 143.429 17.6307C142.872 17.9981 142.23 18.1818 141.503 18.1818C140.942 18.1818 140.493 18.089 140.156 17.9034C139.819 17.714 139.56 17.5 139.378 17.2614C139.196 17.0189 139.056 16.8182 138.957 16.6591H138.798V18H137.503ZM138.821 13.6364C138.821 14.2955 138.918 14.8769 139.111 15.3807C139.304 15.8807 139.586 16.2727 139.957 16.5568C140.329 16.8371 140.783 16.9773 141.321 16.9773C141.882 16.9773 142.349 16.8295 142.724 16.5341C143.103 16.2348 143.387 15.8333 143.577 15.3295C143.77 14.822 143.866 14.2576 143.866 13.6364C143.866 13.0227 143.772 12.4697 143.582 11.9773C143.397 11.4811 143.115 11.089 142.736 10.8011C142.361 10.5095 141.889 10.3636 141.321 10.3636C140.776 10.3636 140.317 10.5019 139.946 10.7784C139.575 11.0511 139.295 11.4337 139.105 11.9261C138.916 12.4148 138.821 12.9848 138.821 13.6364ZM149.827 18.2045C149.274 18.2045 148.772 18.1004 148.321 17.892C147.87 17.6799 147.512 17.375 147.247 16.9773C146.982 16.5758 146.849 16.0909 146.849 15.5227C146.849 15.0227 146.948 14.6174 147.145 14.3068C147.342 13.9924 147.605 13.7462 147.935 13.5682C148.264 13.3902 148.628 13.2576 149.026 13.1705C149.427 13.0795 149.83 13.0076 150.236 12.9545C150.766 12.8864 151.196 12.8352 151.526 12.8011C151.859 12.7633 152.101 12.7008 152.253 12.6136C152.408 12.5265 152.486 12.375 152.486 12.1591V12.1136C152.486 11.553 152.332 11.1174 152.026 10.8068C151.723 10.4962 151.262 10.3409 150.645 10.3409C150.005 10.3409 149.503 10.4811 149.139 10.7614C148.776 11.0417 148.52 11.3409 148.372 11.6591L147.099 11.2045C147.327 10.6742 147.63 10.2614 148.009 9.96591C148.391 9.66667 148.808 9.45833 149.259 9.34091C149.713 9.2197 150.16 9.15909 150.599 9.15909C150.88 9.15909 151.202 9.19318 151.565 9.26136C151.933 9.32576 152.287 9.46023 152.628 9.66477C152.973 9.86932 153.259 10.178 153.486 10.5909C153.713 11.0038 153.827 11.5568 153.827 12.25V18H152.486V16.8182H152.418C152.327 17.0076 152.175 17.2102 151.963 17.4261C151.751 17.642 151.469 17.8258 151.116 17.9773C150.764 18.1288 150.334 18.2045 149.827 18.2045ZM150.031 17C150.562 17 151.009 16.8958 151.372 16.6875C151.74 16.4792 152.016 16.2102 152.202 15.8807C152.391 15.5511 152.486 15.2045 152.486 14.8409V13.6136C152.429 13.6818 152.304 13.7443 152.111 13.8011C151.921 13.8542 151.702 13.9015 151.452 13.9432C151.205 13.9811 150.965 14.0152 150.73 14.0455C150.499 14.072 150.312 14.0947 150.168 14.1136C149.819 14.1591 149.493 14.233 149.19 14.3352C148.891 14.4337 148.649 14.5833 148.463 14.7841C148.281 14.9811 148.19 15.25 148.19 15.5909C148.19 16.0568 148.363 16.4091 148.707 16.6477C149.056 16.8826 149.497 17 150.031 17ZM162.456 11.2273L161.251 11.5682C161.176 11.3674 161.064 11.1723 160.916 10.983C160.772 10.7898 160.575 10.6307 160.325 10.5057C160.075 10.3807 159.755 10.3182 159.365 10.3182C158.831 10.3182 158.386 10.4413 158.03 10.6875C157.678 10.9299 157.501 11.2386 157.501 11.6136C157.501 11.947 157.623 12.2102 157.865 12.4034C158.107 12.5966 158.486 12.7576 159.001 12.8864L160.297 13.2045C161.077 13.3939 161.659 13.6837 162.041 14.0739C162.424 14.4602 162.615 14.9583 162.615 15.5682C162.615 16.0682 162.471 16.5152 162.183 16.9091C161.899 17.303 161.501 17.6136 160.99 17.8409C160.479 18.0682 159.884 18.1818 159.206 18.1818C158.316 18.1818 157.579 17.9886 156.996 17.6023C156.412 17.2159 156.043 16.6515 155.888 15.9091L157.161 15.5909C157.282 16.0606 157.511 16.4129 157.848 16.6477C158.189 16.8826 158.634 17 159.183 17C159.808 17 160.304 16.8674 160.672 16.6023C161.043 16.3333 161.229 16.0114 161.229 15.6364C161.229 15.3333 161.123 15.0795 160.911 14.875C160.698 14.6667 160.373 14.5114 159.933 14.4091L158.479 14.0682C157.679 13.8788 157.092 13.5852 156.717 13.1875C156.346 12.786 156.161 12.2841 156.161 11.6818C156.161 11.1894 156.299 10.7538 156.575 10.375C156.856 9.99621 157.236 9.69886 157.717 9.48295C158.202 9.26705 158.751 9.15909 159.365 9.15909C160.229 9.15909 160.907 9.34848 161.399 9.72727C161.895 10.1061 162.248 10.6061 162.456 11.2273ZM164.634 18V9.27273H165.974V18H164.634ZM165.315 7.81818C165.054 7.81818 164.829 7.72917 164.639 7.55114C164.454 7.37311 164.361 7.15909 164.361 6.90909C164.361 6.65909 164.454 6.44508 164.639 6.26705C164.829 6.08902 165.054 6 165.315 6C165.577 6 165.8 6.08902 165.986 6.26705C166.175 6.44508 166.27 6.65909 166.27 6.90909C166.27 7.15909 166.175 7.37311 165.986 7.55114C165.8 7.72917 165.577 7.81818 165.315 7.81818ZM171.976 18.1818C171.158 18.1818 170.453 17.9886 169.862 17.6023C169.271 17.2159 168.817 16.6837 168.499 16.0057C168.18 15.3277 168.021 14.553 168.021 13.6818C168.021 12.7955 168.184 12.0133 168.51 11.3352C168.839 10.6534 169.298 10.1212 169.885 9.73864C170.476 9.35227 171.165 9.15909 171.953 9.15909C172.567 9.15909 173.12 9.27273 173.612 9.5C174.105 9.72727 174.508 10.0455 174.822 10.4545C175.137 10.8636 175.332 11.3409 175.408 11.8864H174.067C173.964 11.4886 173.737 11.1364 173.385 10.8295C173.036 10.5189 172.567 10.3636 171.976 10.3636C171.453 10.3636 170.995 10.5 170.601 10.7727C170.211 11.0417 169.906 11.4223 169.686 11.9148C169.47 12.4034 169.362 12.9773 169.362 13.6364C169.362 14.3106 169.468 14.8977 169.68 15.3977C169.896 15.8977 170.199 16.286 170.589 16.5625C170.983 16.839 171.446 16.9773 171.976 16.9773C172.324 16.9773 172.641 16.9167 172.925 16.7955C173.209 16.6742 173.449 16.5 173.646 16.2727C173.843 16.0455 173.983 15.7727 174.067 15.4545H175.408C175.332 15.9697 175.144 16.4337 174.845 16.8466C174.55 17.2557 174.158 17.5814 173.669 17.8239C173.184 18.0625 172.62 18.1818 171.976 18.1818ZM185.754 9.27273V10.4091H181.05V9.27273H185.754ZM182.459 18V8.06818C182.459 7.56818 182.576 7.15151 182.811 6.81818C183.046 6.48485 183.351 6.23485 183.726 6.06818C184.101 5.90151 184.497 5.81818 184.913 5.81818C185.243 5.81818 185.512 5.8447 185.72 5.89773C185.929 5.95076 186.084 6 186.186 6.04545L185.8 7.20455C185.732 7.18182 185.637 7.15341 185.516 7.11932C185.398 7.08523 185.243 7.06818 185.05 7.06818C184.607 7.06818 184.286 7.17992 184.089 7.40341C183.896 7.62689 183.8 7.95455 183.8 8.38636V18H182.459ZM190.933 18.1818C190.092 18.1818 189.367 17.9962 188.757 17.625C188.151 17.25 187.683 16.7273 187.354 16.0568C187.028 15.3826 186.865 14.5985 186.865 13.7045C186.865 12.8106 187.028 12.0227 187.354 11.3409C187.683 10.6553 188.142 10.1212 188.729 9.73864C189.32 9.35227 190.009 9.15909 190.797 9.15909C191.251 9.15909 191.7 9.23485 192.143 9.38636C192.587 9.53788 192.99 9.78409 193.354 10.125C193.717 10.4621 194.007 10.9091 194.223 11.4659C194.439 12.0227 194.547 12.7083 194.547 13.5227V14.0909H187.82V12.9318H193.183C193.183 12.4394 193.085 12 192.888 11.6136C192.695 11.2273 192.418 10.9223 192.058 10.6989C191.702 10.4754 191.282 10.3636 190.797 10.3636C190.263 10.3636 189.801 10.4962 189.411 10.7614C189.024 11.0227 188.727 11.3636 188.518 11.7841C188.31 12.2045 188.206 12.6553 188.206 13.1364V13.9091C188.206 14.5682 188.32 15.1269 188.547 15.5852C188.778 16.0398 189.098 16.3864 189.507 16.625C189.916 16.8598 190.392 16.9773 190.933 16.9773C191.286 16.9773 191.604 16.928 191.888 16.8295C192.176 16.7273 192.424 16.5758 192.632 16.375C192.84 16.1705 193.001 15.9167 193.115 15.6136L194.411 15.9773C194.274 16.4167 194.045 16.803 193.723 17.1364C193.401 17.4659 193.003 17.7235 192.53 17.9091C192.056 18.0909 191.524 18.1818 190.933 18.1818ZM199.155 18.2045C198.602 18.2045 198.1 18.1004 197.649 17.892C197.198 17.6799 196.84 17.375 196.575 16.9773C196.31 16.5758 196.178 16.0909 196.178 15.5227C196.178 15.0227 196.276 14.6174 196.473 14.3068C196.67 13.9924 196.933 13.7462 197.263 13.5682C197.592 13.3902 197.956 13.2576 198.354 13.1705C198.755 13.0795 199.159 13.0076 199.564 12.9545C200.094 12.8864 200.524 12.8352 200.854 12.8011C201.187 12.7633 201.429 12.7008 201.581 12.6136C201.736 12.5265 201.814 12.375 201.814 12.1591V12.1136C201.814 11.553 201.661 11.1174 201.354 10.8068C201.051 10.4962 200.59 10.3409 199.973 10.3409C199.333 10.3409 198.831 10.4811 198.467 10.7614C198.104 11.0417 197.848 11.3409 197.7 11.6591L196.428 11.2045C196.655 10.6742 196.958 10.2614 197.337 9.96591C197.719 9.66667 198.136 9.45833 198.587 9.34091C199.041 9.2197 199.488 9.15909 199.928 9.15909C200.208 9.15909 200.53 9.19318 200.893 9.26136C201.261 9.32576 201.615 9.46023 201.956 9.66477C202.301 9.86932 202.587 10.178 202.814 10.5909C203.041 11.0038 203.155 11.5568 203.155 12.25V18H201.814V16.8182H201.746C201.655 17.0076 201.503 17.2102 201.291 17.4261C201.079 17.642 200.797 17.8258 200.445 17.9773C200.092 18.1288 199.662 18.2045 199.155 18.2045ZM199.359 17C199.89 17 200.337 16.8958 200.7 16.6875C201.068 16.4792 201.344 16.2102 201.53 15.8807C201.719 15.5511 201.814 15.2045 201.814 14.8409V13.6136C201.757 13.6818 201.632 13.7443 201.439 13.8011C201.25 13.8542 201.03 13.9015 200.78 13.9432C200.534 13.9811 200.293 14.0152 200.058 14.0455C199.827 14.072 199.64 14.0947 199.496 14.1136C199.147 14.1591 198.821 14.233 198.518 14.3352C198.219 14.4337 197.977 14.5833 197.791 14.7841C197.609 14.9811 197.518 15.25 197.518 15.5909C197.518 16.0568 197.691 16.4091 198.036 16.6477C198.384 16.8826 198.825 17 199.359 17ZM209.398 9.27273V10.4091H204.875V9.27273H209.398ZM206.193 7.18182H207.534V15.5C207.534 15.8788 207.589 16.1629 207.699 16.3523C207.813 16.5379 207.956 16.6629 208.131 16.7273C208.309 16.7879 208.496 16.8182 208.693 16.8182C208.841 16.8182 208.962 16.8106 209.057 16.7955C209.152 16.7765 209.227 16.7614 209.284 16.75L209.557 17.9545C209.466 17.9886 209.339 18.0227 209.176 18.0568C209.013 18.0947 208.807 18.1136 208.557 18.1136C208.178 18.1136 207.807 18.0322 207.443 17.8693C207.083 17.7064 206.784 17.4583 206.545 17.125C206.311 16.7917 206.193 16.3712 206.193 15.8636V7.18182ZM216.915 14.4318V9.27273H218.256V18H216.915V16.5227H216.824C216.619 16.9659 216.301 17.3428 215.869 17.6534C215.438 17.9602 214.892 18.1136 214.233 18.1136C213.688 18.1136 213.203 17.9943 212.778 17.7557C212.354 17.5133 212.021 17.1496 211.778 16.6648C211.536 16.1761 211.415 15.5606 211.415 14.8182V9.27273H212.756V14.7273C212.756 15.3636 212.934 15.8712 213.29 16.25C213.65 16.6288 214.108 16.8182 214.665 16.8182C214.998 16.8182 215.337 16.733 215.682 16.5625C216.03 16.392 216.322 16.1307 216.557 15.7784C216.795 15.4261 216.915 14.9773 216.915 14.4318ZM220.712 18V9.27273H222.007V10.5909H222.098C222.257 10.1591 222.545 9.80871 222.962 9.53977C223.378 9.27083 223.848 9.13636 224.371 9.13636C224.469 9.13636 224.592 9.13826 224.74 9.14205C224.888 9.14583 225 9.15152 225.075 9.15909V10.5227C225.03 10.5114 224.926 10.4943 224.763 10.4716C224.604 10.4451 224.435 10.4318 224.257 10.4318C223.833 10.4318 223.454 10.5208 223.121 10.6989C222.791 10.8731 222.53 11.1155 222.337 11.4261C222.147 11.733 222.053 12.0833 222.053 12.4773V18H220.712ZM230.058 18.1818C229.217 18.1818 228.492 17.9962 227.882 17.625C227.276 17.25 226.808 16.7273 226.479 16.0568C226.153 15.3826 225.99 14.5985 225.99 13.7045C225.99 12.8106 226.153 12.0227 226.479 11.3409C226.808 10.6553 227.267 10.1212 227.854 9.73864C228.445 9.35227 229.134 9.15909 229.922 9.15909C230.376 9.15909 230.825 9.23485 231.268 9.38636C231.712 9.53788 232.115 9.78409 232.479 10.125C232.842 10.4621 233.132 10.9091 233.348 11.4659C233.564 12.0227 233.672 12.7083 233.672 13.5227V14.0909H226.945V12.9318H232.308C232.308 12.4394 232.21 12 232.013 11.6136C231.82 11.2273 231.543 10.9223 231.183 10.6989C230.827 10.4754 230.407 10.3636 229.922 10.3636C229.388 10.3636 228.926 10.4962 228.536 10.7614C228.149 11.0227 227.852 11.3636 227.643 11.7841C227.435 12.2045 227.331 12.6553 227.331 13.1364V13.9091C227.331 14.5682 227.445 15.1269 227.672 15.5852C227.903 16.0398 228.223 16.3864 228.632 16.625C229.041 16.8598 229.517 16.9773 230.058 16.9773C230.411 16.9773 230.729 16.928 231.013 16.8295C231.301 16.7273 231.549 16.5758 231.757 16.375C231.965 16.1705 232.126 15.9167 232.24 15.6136L233.536 15.9773C233.399 16.4167 233.17 16.803 232.848 17.1364C232.526 17.4659 232.128 17.7235 231.655 17.9091C231.181 18.0909 230.649 18.1818 230.058 18.1818ZM241.893 11.2273L240.689 11.5682C240.613 11.3674 240.501 11.1723 240.354 10.983C240.21 10.7898 240.013 10.6307 239.763 10.5057C239.513 10.3807 239.193 10.3182 238.803 10.3182C238.268 10.3182 237.823 10.4413 237.467 10.6875C237.115 10.9299 236.939 11.2386 236.939 11.6136C236.939 11.947 237.06 12.2102 237.303 12.4034C237.545 12.5966 237.924 12.7576 238.439 12.8864L239.734 13.2045C240.515 13.3939 241.096 13.6837 241.479 14.0739C241.861 14.4602 242.053 14.9583 242.053 15.5682C242.053 16.0682 241.909 16.5152 241.621 16.9091C241.337 17.303 240.939 17.6136 240.428 17.8409C239.916 18.0682 239.321 18.1818 238.643 18.1818C237.753 18.1818 237.017 17.9886 236.433 17.6023C235.85 17.2159 235.481 16.6515 235.325 15.9091L236.598 15.5909C236.719 16.0606 236.948 16.4129 237.286 16.6477C237.626 16.8826 238.071 17 238.621 17C239.246 17 239.742 16.8674 240.109 16.6023C240.481 16.3333 240.666 16.0114 240.666 15.6364C240.666 15.3333 240.56 15.0795 240.348 14.875C240.136 14.6667 239.81 14.5114 239.371 14.4091L237.916 14.0682C237.117 13.8788 236.53 13.5852 236.155 13.1875C235.784 12.786 235.598 12.2841 235.598 11.6818C235.598 11.1894 235.736 10.7538 236.013 10.375C236.293 9.99621 236.674 9.69886 237.155 9.48295C237.64 9.26705 238.189 9.15909 238.803 9.15909C239.666 9.15909 240.344 9.34848 240.837 9.72727C241.333 10.1061 241.685 10.6061 241.893 11.2273Z" fill="#535862"/>
</svg>
