<svg width="157" height="48" viewBox="0 0 157 48" fill="none" xmlns="http://www.w3.org/2000/svg">
<rect x="0.599609" y="19.2002" width="9.59998" height="9.59999" fill="#099250"/>
<rect x="31.4004" y="28.7998" width="9.6" height="9.59999" transform="rotate(180 31.4004 28.7998)" fill="#099250"/>
<path opacity="0.2" d="M10.1992 19.1996L21.7992 9.59961V19.1996L10.1992 28.7996V19.1996Z" fill="#099250"/>
<path opacity="0.5" d="M21.7988 28.8004L10.1988 38.4004L10.1988 28.8004L21.7988 19.2004L21.7988 28.8004Z" fill="#099250"/>
<path opacity="0.6" d="M0.599609 19.2L21.7996 0V9.59999L10.1996 19.2H0.599609Z" fill="#099250"/>
<path opacity="0.7" d="M31.4004 28.8L10.2004 48L10.2004 38.4L21.8004 28.8L31.4004 28.8Z" fill="#099250"/>
<path d="M50.127 33.243C47.463 33.243 45.438 32.649 44.052 31.461C42.684 30.273 42 28.725 42 26.817H46.266C46.302 27.789 46.626 28.572 47.238 29.166C47.868 29.742 48.885 30.03 50.289 30.03C51.369 30.03 52.233 29.832 52.881 29.436C53.529 29.04 53.853 28.455 53.853 27.681C53.853 27.051 53.718 26.565 53.448 26.223C53.178 25.863 52.71 25.584 52.044 25.386C51.378 25.188 50.451 24.99 49.263 24.792C46.995 24.432 45.285 23.82 44.133 22.956C42.981 22.074 42.405 20.778 42.405 19.068C42.405 17.214 43.089 15.756 44.457 14.694C45.825 13.614 47.706 13.074 50.1 13.074C51.648 13.074 52.98 13.317 54.096 13.803C55.212 14.289 56.076 14.973 56.688 15.855C57.318 16.737 57.633 17.763 57.633 18.933H53.394C53.358 17.979 53.007 17.295 52.341 16.881C51.693 16.467 50.901 16.26 49.965 16.26C48.975 16.26 48.192 16.467 47.616 16.881C47.058 17.277 46.779 17.826 46.779 18.528C46.779 19.14 46.941 19.599 47.265 19.905C47.589 20.211 48.093 20.445 48.777 20.607C49.479 20.769 50.397 20.949 51.531 21.147C52.359 21.273 53.169 21.444 53.961 21.66C54.753 21.876 55.464 22.2 56.094 22.632C56.742 23.046 57.255 23.631 57.633 24.387C58.029 25.125 58.227 26.088 58.227 27.276C58.227 29.04 57.543 30.48 56.175 31.596C54.825 32.694 52.809 33.243 50.127 33.243Z" fill="#0A0D12"/>
<path d="M60.41 16.665V13.317H64.379V16.665H60.41ZM60.41 33V18.528H64.379V33H60.41Z" fill="#0A0D12"/>
<path d="M72.9523 33.27C70.8463 33.27 69.2173 32.829 68.0653 31.947C66.9313 31.047 66.3733 29.877 66.3913 28.437H70.2793C70.2973 29.211 70.5673 29.769 71.0893 30.111C71.6293 30.435 72.2863 30.597 73.0603 30.597C73.8703 30.597 74.4823 30.462 74.8963 30.192C75.3103 29.904 75.5173 29.517 75.5173 29.031C75.5173 28.365 75.2743 27.933 74.7883 27.735C74.3203 27.537 73.5733 27.366 72.5473 27.222C71.4853 27.078 70.5133 26.871 69.6313 26.601C68.7493 26.313 68.0473 25.881 67.5253 25.305C67.0213 24.729 66.7693 23.91 66.7693 22.848C66.7693 21.318 67.3453 20.175 68.4973 19.419C69.6673 18.645 71.1973 18.258 73.0873 18.258C74.9413 18.258 76.4173 18.663 77.5153 19.473C78.6133 20.265 79.1803 21.381 79.2163 22.821H75.3283C75.3283 22.209 75.1123 21.741 74.6803 21.417C74.2663 21.093 73.6993 20.931 72.9793 20.931C72.2413 20.931 71.6833 21.075 71.3053 21.363C70.9273 21.633 70.7383 21.993 70.7383 22.443C70.7383 22.983 70.9813 23.361 71.4673 23.577C71.9533 23.793 72.7273 23.973 73.7893 24.117C74.5453 24.225 75.2653 24.36 75.9493 24.522C76.6333 24.666 77.2363 24.9 77.7583 25.224C78.2983 25.53 78.7213 25.962 79.0273 26.52C79.3513 27.06 79.5133 27.771 79.5133 28.653C79.5133 30.237 78.9283 31.407 77.7583 32.163C76.5883 32.901 74.9863 33.27 72.9523 33.27Z" fill="#0A0D12"/>
<path d="M80.5718 37.509V34.242H82.2458C82.8398 34.242 83.3078 34.116 83.6498 33.864C84.0098 33.63 84.2798 33.261 84.4598 32.757L84.8108 31.866L79.2758 18.528H83.6228L86.2688 26.277L86.7278 27.816H86.8628L87.2948 26.277L89.7788 18.528H94.0178L88.3748 33.675C87.8168 35.187 87.0878 36.204 86.1878 36.726C85.3058 37.248 84.2438 37.509 83.0018 37.509H80.5718Z" fill="#0A0D12"/>
<path d="M95.124 37.509V18.528H98.958L99.093 21.039H99.309C99.651 20.193 100.218 19.518 101.01 19.014C101.82 18.51 102.783 18.258 103.899 18.258C105.627 18.258 107.022 18.888 108.084 20.148C109.164 21.39 109.704 23.262 109.704 25.764C109.704 28.248 109.164 30.12 108.084 31.38C107.022 32.64 105.627 33.27 103.899 33.27C102.783 33.27 101.82 33.018 101.01 32.514C100.218 31.992 99.651 31.317 99.309 30.489H99.093V37.509H95.124ZM102.414 30.057C103.386 30.057 104.16 29.715 104.736 29.031C105.33 28.329 105.627 27.24 105.627 25.764C105.627 24.288 105.33 23.208 104.736 22.524C104.16 21.822 103.386 21.471 102.414 21.471C101.676 21.471 101.064 21.642 100.578 21.984C100.092 22.326 99.732 22.776 99.498 23.334C99.264 23.874 99.147 24.45 99.147 25.062V26.466C99.147 27.078 99.264 27.663 99.498 28.221C99.732 28.761 100.092 29.202 100.578 29.544C101.064 29.886 101.676 30.057 102.414 30.057Z" fill="#0A0D12"/>
<path d="M111.67 33V13.317H115.639V21.147H115.801C116.197 20.193 116.809 19.473 117.637 18.987C118.465 18.501 119.392 18.258 120.418 18.258C121.39 18.258 122.254 18.456 123.01 18.852C123.784 19.248 124.396 19.887 124.846 20.769C125.296 21.633 125.521 22.794 125.521 24.252V33H121.552V25.116C121.552 23.892 121.336 22.983 120.904 22.389C120.472 21.795 119.779 21.498 118.825 21.498C117.799 21.498 117.007 21.849 116.449 22.551C115.909 23.235 115.639 24.036 115.639 24.954V33H111.67Z" fill="#0A0D12"/>
<path d="M133.001 33.243C131.327 33.243 130.049 32.757 129.167 31.785C128.285 30.813 127.844 29.4 127.844 27.546V18.528H131.813V26.493C131.813 27.645 132.02 28.527 132.434 29.139C132.866 29.733 133.577 30.03 134.567 30.03C135.575 30.03 136.349 29.688 136.889 29.004C137.447 28.302 137.726 27.474 137.726 26.52V18.528H141.695V33H137.888L137.726 30.354H137.537C137.195 31.29 136.61 32.01 135.782 32.514C134.972 33 134.045 33.243 133.001 33.243Z" fill="#0A0D12"/>
<path d="M150.224 33.27C148.118 33.27 146.489 32.829 145.337 31.947C144.203 31.047 143.645 29.877 143.663 28.437H147.551C147.569 29.211 147.839 29.769 148.361 30.111C148.901 30.435 149.558 30.597 150.332 30.597C151.142 30.597 151.754 30.462 152.168 30.192C152.582 29.904 152.789 29.517 152.789 29.031C152.789 28.365 152.546 27.933 152.06 27.735C151.592 27.537 150.845 27.366 149.819 27.222C148.757 27.078 147.785 26.871 146.903 26.601C146.021 26.313 145.319 25.881 144.797 25.305C144.293 24.729 144.041 23.91 144.041 22.848C144.041 21.318 144.617 20.175 145.769 19.419C146.939 18.645 148.469 18.258 150.359 18.258C152.213 18.258 153.689 18.663 154.787 19.473C155.885 20.265 156.452 21.381 156.488 22.821H152.6C152.6 22.209 152.384 21.741 151.952 21.417C151.538 21.093 150.971 20.931 150.251 20.931C149.513 20.931 148.955 21.075 148.577 21.363C148.199 21.633 148.01 21.993 148.01 22.443C148.01 22.983 148.253 23.361 148.739 23.577C149.225 23.793 149.999 23.973 151.061 24.117C151.817 24.225 152.537 24.36 153.221 24.522C153.905 24.666 154.508 24.9 155.03 25.224C155.57 25.53 155.993 25.962 156.299 26.52C156.623 27.06 156.785 27.771 156.785 28.653C156.785 30.237 156.2 31.407 155.03 32.163C153.86 32.901 152.258 33.27 150.224 33.27Z" fill="#0A0D12"/>
</svg>
