<svg width="190" height="48" viewBox="0 0 190 48" fill="none" xmlns="http://www.w3.org/2000/svg">
<rect y="4" width="10" height="10" fill="#155EEF"/>
<rect opacity="0.6" x="20" y="4" width="10" height="10" fill="#155EEF"/>
<rect opacity="0.6" x="10" y="14" width="10" height="10" fill="#155EEF"/>
<rect opacity="0.45" x="20" y="14" width="10" height="10" fill="#155EEF"/>
<rect opacity="0.3" x="30" y="14" width="10" height="10" fill="#155EEF"/>
<rect opacity="0.6" y="24" width="10" height="10" fill="#155EEF"/>
<rect opacity="0.45" x="10" y="24" width="10" height="10" fill="#155EEF"/>
<rect opacity="0.3" x="20" y="24" width="10" height="10" fill="#155EEF"/>
<rect opacity="0.15" x="30" y="24" width="10" height="10" fill="#155EEF"/>
<rect opacity="0.3" x="10" y="34" width="10" height="10" fill="#155EEF"/>
<rect opacity="0.15" x="20" y="34" width="10" height="10" fill="#155EEF"/>
<path d="M69.92 23.22C69.92 25.98 69.03 28.35 67.25 30.33C65.49 32.31 63.03 33.3 59.87 33.3C56.69 33.3 54.25 32.31 52.55 30.33C50.85 28.35 50 26 50 23.28C50 20.44 50.9 18.05 52.7 16.11C54.5 14.17 56.93 13.2 59.99 13.2C63.11 13.2 65.54 14.19 67.28 16.17C69.04 18.13 69.92 20.48 69.92 23.22ZM65.57 23.34C65.57 21.26 65.09 19.64 64.13 18.48C63.17 17.32 61.78 16.74 59.96 16.74C58.02 16.74 56.6 17.36 55.7 18.6C54.8 19.82 54.35 21.35 54.35 23.19C54.35 24.97 54.79 26.51 55.67 27.81C56.55 29.11 58.02 29.76 60.08 29.76C61.98 29.76 63.37 29.17 64.25 27.99C65.13 26.79 65.57 25.24 65.57 23.34Z" fill="#0A0D12"/>
<path d="M86.7174 33H81.0474V30.48C80.6674 31.26 80.1074 31.93 79.3674 32.49C78.6274 33.03 77.6474 33.3 76.4274 33.3C74.6474 33.3 73.2474 32.69 72.2274 31.47C71.2074 30.25 70.6974 28.59 70.6974 26.49C70.6974 24.47 71.1974 22.75 72.1974 21.33C73.1974 19.91 74.7074 19.2 76.7274 19.2C77.8274 19.2 78.7274 19.42 79.4274 19.86C80.1274 20.3 80.6674 20.86 81.0474 21.54V15.3H78.3474V12.36H84.9174V30.09H86.7174V33ZM81.0474 26.16V25.83C81.0474 24.71 80.7474 23.84 80.1474 23.22C79.5674 22.58 78.8374 22.26 77.9574 22.26C77.0974 22.26 76.3374 22.58 75.6774 23.22C75.0374 23.86 74.7174 24.87 74.7174 26.25C74.7174 27.55 75.0174 28.54 75.6174 29.22C76.2174 29.9 76.9274 30.24 77.7474 30.24C78.7674 30.24 79.5674 29.81 80.1474 28.95C80.7474 28.09 81.0474 27.16 81.0474 26.16Z" fill="#0A0D12"/>
<path d="M100.437 28.74C100.337 29.94 99.7468 31 98.6668 31.92C97.5868 32.84 96.0768 33.3 94.1368 33.3C92.1168 33.3 90.4468 32.73 89.1268 31.59C87.8268 30.45 87.1768 28.75 87.1768 26.49C87.1768 24.41 87.7668 22.68 88.9468 21.3C90.1468 19.9 91.8168 19.2 93.9568 19.2C95.8368 19.2 97.3568 19.74 98.5168 20.82C99.6968 21.9 100.297 23.32 100.317 25.08C100.317 25.74 100.247 26.39 100.107 27.03H91.2268C91.4468 29.17 92.5068 30.24 94.4068 30.24C95.4468 30.24 96.1468 29.99 96.5068 29.49C96.8868 28.99 97.1168 28.54 97.1968 28.14L100.437 28.74ZM96.3268 24.78C96.4068 24.1 96.2568 23.46 95.8768 22.86C95.5168 22.26 94.8768 21.96 93.9568 21.96C93.1568 21.96 92.5368 22.22 92.0968 22.74C91.6568 23.26 91.3768 23.94 91.2568 24.78H96.3268Z" fill="#0A0D12"/>
<path d="M102.489 20.43C103.669 19.95 104.649 19.63 105.429 19.47C106.229 19.29 107.179 19.2 108.279 19.2C109.739 19.2 110.999 19.58 112.059 20.34C113.119 21.1 113.649 22.25 113.649 23.79V29.67C113.649 30.37 113.959 30.72 114.579 30.72C114.759 30.72 114.949 30.69 115.149 30.63L115.179 32.67C114.399 33.09 113.589 33.3 112.749 33.3C110.969 33.3 109.979 32.41 109.779 30.63V30.6C109.399 31.28 108.849 31.9 108.129 32.46C107.429 33.02 106.529 33.3 105.429 33.3C104.449 33.3 103.509 33.01 102.609 32.43C101.709 31.85 101.259 30.85 101.259 29.43C101.259 27.77 101.919 26.67 103.239 26.13C104.579 25.59 106.019 25.32 107.559 25.32C108.419 25.32 109.159 25.36 109.779 25.44V24.99C109.779 24.29 109.679 23.61 109.479 22.95C109.299 22.29 108.659 21.96 107.559 21.96C107.159 21.96 106.789 21.99 106.449 22.05C106.129 22.09 105.809 22.19 105.489 22.35L104.979 24.27L101.889 23.94L102.489 20.43ZM109.779 27.48V27.3C109.459 27.26 109.129 27.22 108.789 27.18C108.469 27.14 108.149 27.12 107.829 27.12C107.149 27.12 106.549 27.25 106.029 27.51C105.509 27.75 105.249 28.24 105.249 28.98C105.249 29.42 105.369 29.79 105.609 30.09C105.849 30.39 106.259 30.54 106.839 30.54C107.519 30.54 108.149 30.3 108.729 29.82C109.329 29.32 109.679 28.54 109.779 27.48Z" fill="#0A0D12"/>
<path d="M130.115 26.25C130.115 28.39 129.415 30.1 128.015 31.38C126.615 32.66 124.835 33.3 122.675 33.3C120.595 33.3 118.895 32.7 117.575 31.5C116.275 30.28 115.625 28.58 115.625 26.4C115.625 24.42 116.225 22.72 117.425 21.3C118.625 19.88 120.445 19.17 122.885 19.17C125.325 19.17 127.135 19.88 128.315 21.3C129.515 22.7 130.115 24.35 130.115 26.25ZM126.125 26.13C126.125 24.75 125.805 23.74 125.165 23.1C124.525 22.46 123.745 22.14 122.825 22.14C121.825 22.14 121.035 22.5 120.455 23.22C119.895 23.92 119.615 24.91 119.615 26.19C119.615 27.35 119.875 28.33 120.395 29.13C120.935 29.93 121.735 30.33 122.795 30.33C123.795 30.33 124.595 29.96 125.195 29.22C125.815 28.46 126.125 27.43 126.125 26.13Z" fill="#0A0D12"/>
<path d="M145.293 33H130.653V29.58H132.753V16.92H130.653V13.5H139.503V16.92H136.773V29.58H141.873L142.473 25.8L145.893 26.1L145.293 33Z" fill="#0A0D12"/>
<path d="M147.652 20.43C148.832 19.95 149.812 19.63 150.592 19.47C151.392 19.29 152.342 19.2 153.442 19.2C154.902 19.2 156.162 19.58 157.222 20.34C158.282 21.1 158.812 22.25 158.812 23.79V29.67C158.812 30.37 159.122 30.72 159.742 30.72C159.922 30.72 160.112 30.69 160.312 30.63L160.342 32.67C159.562 33.09 158.752 33.3 157.912 33.3C156.132 33.3 155.142 32.41 154.942 30.63V30.6C154.562 31.28 154.012 31.9 153.292 32.46C152.592 33.02 151.692 33.3 150.592 33.3C149.612 33.3 148.672 33.01 147.772 32.43C146.872 31.85 146.422 30.85 146.422 29.43C146.422 27.77 147.082 26.67 148.402 26.13C149.742 25.59 151.182 25.32 152.722 25.32C153.582 25.32 154.322 25.36 154.942 25.44V24.99C154.942 24.29 154.842 23.61 154.642 22.95C154.462 22.29 153.822 21.96 152.722 21.96C152.322 21.96 151.952 21.99 151.612 22.05C151.292 22.09 150.972 22.19 150.652 22.35L150.142 24.27L147.052 23.94L147.652 20.43ZM154.942 27.48V27.3C154.622 27.26 154.292 27.22 153.952 27.18C153.632 27.14 153.312 27.12 152.992 27.12C152.312 27.12 151.712 27.25 151.192 27.51C150.672 27.75 150.412 28.24 150.412 28.98C150.412 29.42 150.532 29.79 150.772 30.09C151.012 30.39 151.422 30.54 152.002 30.54C152.682 30.54 153.312 30.3 153.892 29.82C154.492 29.32 154.842 28.54 154.942 27.48Z" fill="#0A0D12"/>
<path d="M176.087 25.92C176.087 27.92 175.557 29.65 174.497 31.11C173.457 32.57 171.917 33.3 169.877 33.3C167.817 33.3 166.367 32.52 165.527 30.96C165.487 31.3 165.437 31.64 165.377 31.98C165.337 32.32 165.287 32.66 165.227 33H161.357C161.497 32.3 161.617 31.6 161.717 30.9C161.817 30.2 161.867 29.51 161.867 28.83V15.3H160.067V12.36H165.737V22.05C166.097 21.27 166.637 20.6 167.357 20.04C168.097 19.48 169.077 19.2 170.297 19.2C171.997 19.2 173.387 19.79 174.467 20.97C175.547 22.15 176.087 23.8 176.087 25.92ZM172.067 26.25C172.067 24.95 171.787 23.96 171.227 23.28C170.667 22.6 169.927 22.26 169.007 22.26C167.967 22.26 167.157 22.64 166.577 23.4C166.017 24.16 165.737 25.04 165.737 26.04V26.37C165.737 27.47 166.007 28.4 166.547 29.16C167.107 29.9 167.897 30.27 168.917 30.27C169.797 30.27 170.537 29.95 171.137 29.31C171.757 28.65 172.067 27.63 172.067 26.25Z" fill="#0A0D12"/>
<path d="M189.161 28.86C189.161 30.36 188.561 31.48 187.361 32.22C186.181 32.94 184.641 33.3 182.741 33.3C181.761 33.3 180.771 33.2 179.771 33C178.791 32.78 177.851 32.44 176.951 31.98L177.491 28.2L180.491 28.53V30.21C180.851 30.33 181.231 30.41 181.631 30.45C182.031 30.47 182.331 30.48 182.531 30.48C183.271 30.48 183.911 30.36 184.451 30.12C184.991 29.88 185.261 29.52 185.261 29.04C185.261 28.46 184.851 28.08 184.031 27.9C183.211 27.72 182.261 27.54 181.181 27.36C180.101 27.18 179.151 26.81 178.331 26.25C177.511 25.69 177.101 24.74 177.101 23.4C177.101 21.74 177.741 20.63 179.021 20.07C180.321 19.49 181.661 19.2 183.041 19.2C184.841 19.2 186.531 19.61 188.111 20.43L188.441 23.88L185.441 24.21L185.201 22.32C184.541 22.1 183.831 21.99 183.071 21.99C182.571 21.99 182.141 22.1 181.781 22.32C181.441 22.52 181.271 22.84 181.271 23.28C181.271 23.86 181.661 24.25 182.441 24.45C183.241 24.63 184.161 24.81 185.201 24.99C186.261 25.17 187.181 25.54 187.961 26.1C188.761 26.64 189.161 27.56 189.161 28.86Z" fill="#0A0D12"/>
</svg>
