<svg width="198" height="48" viewBox="0 0 198 48" fill="none" xmlns="http://www.w3.org/2000/svg">
<path fill-rule="evenodd" clip-rule="evenodd" d="M26.6797 2.01388C27.1267 1.78062 27.6611 1.7876 28.1019 2.03247L38.2284 7.65748C38.7046 7.92204 39 8.42403 39 8.96885L38.9993 20.2184C38.9993 20.7772 38.6886 21.2897 38.1932 21.5482L12.3196 35.0478C11.8725 35.2811 11.3381 35.2741 10.8973 35.0291L0.773445 29.4043C0.297359 29.1397 0.00205758 28.638 0.00196257 28.0933L2.29477e-08 16.8436C-9.74903e-05 16.2847 0.310589 15.7721 0.806135 15.5135L26.6797 2.01388ZM3.00016 17.7526L3.00153 25.6188L25.8753 13.6842L25.874 5.81805L3.00016 17.7526ZM28.874 5.89309L28.8753 13.7108L35.9995 17.669L35.9999 9.85139L28.874 5.89309ZM34.3361 20.1768L27.3531 16.297L4.66512 28.1346L11.6481 32.0144L34.3361 20.1768Z" fill="#1570EF"/>
<path opacity="0.5" fill-rule="evenodd" clip-rule="evenodd" d="M12.3203 46.2986C11.8733 46.5319 11.3389 46.5249 10.8981 46.28L0.771626 40.655C0.295353 40.3905 -2.61276e-05 39.8885 8.25229e-06 39.3436L0.000707325 28.0941C0.000741706 27.5353 0.311407 27.0228 0.806841 26.7643L26.6804 13.2647C27.1275 13.0314 27.6619 13.0384 28.1028 13.2834L38.2266 18.9082C38.7026 19.1728 38.9979 19.6745 38.998 20.2192L39 31.4689C39.0001 32.0278 38.6894 32.5404 38.1939 32.799L12.3203 46.2986ZM35.9998 30.5599L35.9985 22.6937L13.1247 34.6282L13.126 42.4944L35.9998 30.5599ZM10.126 42.4194L10.1247 34.6017L3.00055 30.6435L3.00006 38.4611L10.126 42.4194ZM4.66387 28.1357L11.6469 32.0155L34.3349 20.1779L27.3519 16.2981L4.66387 28.1357Z" fill="#1570EF"/>
<path d="M65.065 26.979C65.065 30.678 62.095 33.27 57.235 33.27C52.348 33.27 49.297 30.651 49 26.547H53.158C53.266 28.68 54.643 30.057 57.154 30.057C59.233 30.057 60.718 29.139 60.718 27.573C60.718 26.358 59.773 25.629 58.126 25.305L54.94 24.684C51.997 24.117 49.729 22.524 49.729 19.311C49.729 15.855 52.78 13.371 56.965 13.371C61.312 13.371 64.498 15.909 64.768 19.959H60.61C60.475 17.934 59.071 16.557 57.019 16.557C55.021 16.557 53.887 17.691 53.887 19.041C53.887 20.364 55.102 20.931 56.506 21.201L59.827 21.876C63.229 22.551 65.065 24.117 65.065 26.979Z" fill="#0A0D12"/>
<path d="M75.7568 29.355V32.622C74.8388 33.081 73.9748 33.27 72.8678 33.27C69.8978 33.27 68.0348 31.569 68.0348 28.329V21.795H65.1188V18.582H68.0348V14.316H71.7608V18.582H75.8918V21.795H71.7608V27.465C71.7608 29.139 72.5168 29.814 73.8668 29.814C74.5688 29.814 75.2168 29.652 75.7568 29.355Z" fill="#0A0D12"/>
<path d="M85.6894 33V31.218C84.7444 32.568 83.3134 33.27 81.3424 33.27C78.3454 33.27 76.3474 31.515 76.3474 28.815C76.3474 26.007 78.6154 24.495 82.8274 24.495C83.6374 24.495 84.3394 24.549 85.2304 24.657V23.793C85.2304 22.173 84.3124 21.228 82.7464 21.228C81.1264 21.228 80.1544 22.173 80.0194 23.793H76.6444C76.8604 20.472 79.2634 18.312 82.7464 18.312C86.5264 18.312 88.7404 20.391 88.7404 23.928V33H85.6894ZM79.8844 28.707C79.8844 29.922 80.7484 30.678 82.1524 30.678C84.0694 30.678 85.2304 29.625 85.2304 27.951V26.925C84.3394 26.79 83.7184 26.736 83.0704 26.736C80.9374 26.736 79.8844 27.411 79.8844 28.707Z" fill="#0A0D12"/>
<path d="M96.9695 33.27C92.8115 33.27 89.9495 30.192 89.9495 25.791C89.9495 21.471 92.9195 18.312 96.9695 18.312C100.723 18.312 103.504 20.85 103.963 24.738H100.021C99.8315 22.821 98.6705 21.633 96.9695 21.633C95.0255 21.633 93.7835 23.226 93.7835 25.791C93.7835 28.383 94.9985 29.949 96.9695 29.949C98.6975 29.949 99.8045 28.815 100.021 26.844H103.963C103.531 30.813 100.831 33.27 96.9695 33.27Z" fill="#0A0D12"/>
<path d="M109.045 33H105.292V13.614H109.045V24.684L114.31 18.582H118.63L112.663 25.494L119.332 33H114.553L109.045 26.304V33Z" fill="#0A0D12"/>
<path d="M133.538 25.791C133.538 21.525 136.049 18.312 139.937 18.312C141.665 18.312 143.123 19.068 144.203 20.445V13.614H147.929V33H144.5V30.921C143.366 32.433 141.8 33.27 139.937 33.27C136.049 33.27 133.538 30.003 133.538 25.791ZM137.399 25.791C137.399 28.491 138.938 29.922 140.774 29.922C142.637 29.922 144.176 28.464 144.176 25.737C144.176 23.01 142.61 21.633 140.774 21.633C138.938 21.633 137.399 23.037 137.399 25.791Z" fill="#0A0D12"/>
<path d="M167.613 33H155.085V13.614H159.189V29.301H167.613V33Z" fill="#0A0D12"/>
<path d="M177.613 33V31.218C176.668 32.568 175.237 33.27 173.266 33.27C170.269 33.27 168.271 31.515 168.271 28.815C168.271 26.007 170.539 24.495 174.751 24.495C175.561 24.495 176.263 24.549 177.154 24.657V23.793C177.154 22.173 176.236 21.228 174.67 21.228C173.05 21.228 172.078 22.173 171.943 23.793H168.568C168.784 20.472 171.187 18.312 174.67 18.312C178.45 18.312 180.664 20.391 180.664 23.928V33H177.613ZM171.808 28.707C171.808 29.922 172.672 30.678 174.076 30.678C175.993 30.678 177.154 29.625 177.154 27.951V26.925C176.263 26.79 175.642 26.736 174.994 26.736C172.861 26.736 171.808 27.411 171.808 28.707Z" fill="#0A0D12"/>
<path d="M197.209 25.791C197.209 30.003 194.698 33.27 190.81 33.27C188.947 33.27 187.381 32.433 186.274 30.921V33H182.818V13.614H186.571V20.445C187.624 19.041 189.082 18.312 190.81 18.312C194.698 18.312 197.209 21.525 197.209 25.791ZM193.348 25.791C193.348 23.037 191.809 21.633 189.973 21.633C188.164 21.633 186.598 23.01 186.598 25.737C186.598 28.464 188.11 29.922 189.973 29.922C191.809 29.922 193.348 28.491 193.348 25.791Z" fill="#0A0D12"/>
<path d="M126.19 33.243C130.132 33.243 132.913 30.921 132.94 27.627H129.295C129.187 29.274 127.999 30.273 126.136 30.273C124.192 30.273 123.058 29.301 123.058 27.681C123.058 26.088 124.381 25.143 126.622 25.143H128.593V22.173H126.838C125.002 22.173 123.895 21.255 123.895 19.77C123.895 18.339 124.84 17.448 126.406 17.448C127.945 17.448 128.917 18.42 128.944 20.013H132.589C132.562 16.854 129.808 14.478 126.217 14.478C122.383 14.478 120.034 16.557 120.034 19.5C120.034 21.174 121.006 22.497 122.761 23.415C120.493 24.144 119.197 25.602 119.197 27.573C119.197 30.948 122.005 33.243 126.19 33.243Z" fill="#0A0D12"/>
</svg>
